PathFileType	4	(X/Y/Z)	D:\TRACE\spotREDO_2-26-24\spot_Both_Motion_1_7-platform.trc
DataRate	CameraRate	NumFrames	NumMarkers	Units	OrigDataRate	OrigDataStartFrame	OrigNumFrames
100.00	100.00	      36	5	mm	100.00	3501	      7000
Frame#	Time	Left_Front			Right_Front			Left_Aft			Right_Aft			Post			
		X1	Y1	Z1	X2	Y2	Z2	X3	Y3	Z3	X4	Y4	Z4	X5	Y5	Z5	

3501	35.000	-720.94177	12.43416	-571.13879	693.94952	18.84697	-486.82230	-792.03137	-13.00150	647.12579	778.33868	-5.82208	651.26520	-11.29041	650.66559	-960.56427	
3502	35.010	-721.56128	12.91230	-571.00159	693.00177	19.28899	-486.77872	-792.90619	-13.39659	647.21625	777.64429	-5.97764	651.23077	-12.24806	651.37042	-960.09857	
3503	35.020	-722.71014	13.37600	-571.02386	692.09814	19.47699	-486.59229	-793.87415	-13.50941	647.32520	776.34760	-6.54797	651.41858	-13.35318	651.93909	-959.63684	
3504	35.030	-723.44086	13.64950	-570.89508	691.38177	19.81724	-486.62146	-794.72058	-14.02215	647.37573	775.65173	-6.69652	651.46991	-14.10579	652.35803	-959.41785	
3505	35.040	-724.36890	13.81129	-570.93097	690.30060	20.25928	-486.58789	-795.62909	-14.52686	647.52240	774.90674	-7.10775	651.54718	-15.09776	652.69617	-958.97198	
3506	35.050	-725.19006	14.14411	-570.91321	689.50732	20.45398	-486.31641	-796.64825	-15.01361	647.60260	773.84491	-7.44243	651.69482	-15.93083	653.36084	-958.37250	
3507	35.060	-726.26300	14.69701	-570.75439	688.80402	20.71786	-486.28717	-797.23163	-15.22018	647.66504	773.00269	-7.77181	651.66077	-16.77071	654.12817	-958.11566	
3508	35.070	-726.90997	15.16500	-570.58270	687.63361	21.25645	-486.34552	-798.00006	-15.47563	647.72430	772.42432	-8.09900	651.72577	-17.65170	654.50507	-957.68604	
3509	35.080	-727.81799	15.34740	-570.53235	686.88263	21.31421	-486.06555	-799.00311	-15.93010	647.84851	771.51135	-8.56873	651.92950	-18.68733	654.96527	-957.32758	
3510	35.090	-728.55768	15.51897	-570.37567	686.25549	21.67507	-486.03632	-799.75098	-16.39776	647.89032	770.87695	-8.76513	652.17004	-19.51232	655.64728	-956.61804	
3511	35.100	-729.59796	15.78611	-570.23199	685.30194	21.93768	-485.78485	-800.72577	-16.79091	648.02100	769.80902	-9.44437	651.92114	-20.13362	656.19916	-955.93976	
3512	35.110	-730.31989	16.31334	-570.20685	684.71436	22.19012	-485.55042	-801.40558	-17.00976	648.19617	768.89001	-9.75805	651.81824	-20.80265	656.67542	-955.46844	
3513	35.120	-731.26721	16.70851	-570.07941	683.90448	22.52261	-485.65298	-802.21332	-17.35601	648.33490	768.34515	-10.13912	651.92938	-21.62420	657.55786	-954.78906	
3514	35.130	-731.73590	16.91048	-569.95654	682.78815	22.94989	-485.63397	-803.09351	-17.61962	648.37555	767.69531	-10.42173	652.17096	-22.57679	658.02753	-954.45349	
3515	35.140	-732.63928	17.27997	-569.81866	682.21753	22.98885	-485.44504	-803.92834	-18.10395	648.28546	766.71832	-10.74345	652.32770	-23.28500	658.43542	-954.03436	
3516	35.150	-733.42755	17.42454	-569.89984	681.31152	23.10339	-485.46689	-804.59717	-18.35735	648.34113	765.98590	-11.31548	652.36133	-24.36208	658.97803	-953.43939	
3517	35.160	-734.15814	17.84869	-569.73828	680.44446	23.57883	-485.48911	-805.24005	-18.67499	648.35828	765.19379	-11.44532	652.28790	-25.02581	659.52051	-953.15747	
3518	35.170	-734.95789	18.33697	-569.65839	679.78070	24.02534	-485.35251	-805.99957	-18.85134	648.52319	764.39935	-11.86915	652.34747	-25.65471	659.96277	-952.74603	
3519	35.180	-735.65070	18.56276	-569.50293	679.29553	24.00994	-485.08942	-806.78558	-19.21321	648.56390	763.69385	-12.15800	652.41992	-26.32877	660.33325	-952.24426	
3520	35.190	-736.35272	18.60540	-569.54175	678.46857	24.36702	-485.06259	-807.40637	-19.44279	648.72510	763.27606	-12.23327	652.64386	-26.89235	660.72339	-951.97528	
3521	35.200	-736.96893	18.96181	-569.35803	677.58374	24.49716	-484.97717	-808.22430	-19.88289	648.82520	762.32935	-12.72945	652.74353	-27.76786	661.19885	-951.70380	
3522	35.210	-737.56085	19.08296	-569.41473	677.19525	24.56928	-484.76978	-808.76086	-20.00769	649.08264	761.60529	-12.82318	652.89508	-28.68520	661.69312	-951.37598	
3523	35.220	-738.38226	19.43895	-569.34741	676.63348	24.73463	-484.67123	-809.49536	-20.41083	648.92847	761.01489	-13.32487	652.78497	-28.83276	662.04633	-951.02765	
3524	35.230	-739.06879	19.78040	-569.33533	675.82019	25.09623	-484.67526	-810.07635	-20.65513	648.98328	760.54260	-13.64735	652.70990	-28.91553	662.36621	-950.85077	
3525	35.240	-739.80383	20.10632	-569.14795	674.95746	25.40512	-484.81622	-810.63318	-20.93250	648.98303	759.83392	-13.77521	652.72803	-30.16344	663.03204	-950.53430	
3526	35.250	-740.21191	20.32217	-569.14935	674.49664	25.44861	-484.58899	-811.19659	-21.31616	649.02637	759.18353	-14.24375	653.02740	-30.94368	663.56836	-950.04590	
3527	35.260	-740.50592	20.57553	-569.03442	674.04962	25.53843	-484.45114	-811.83209	-21.67438	649.11713	758.86523	-14.49825	653.15253	-31.45481	663.86176	-949.69714	
3528	35.270	-741.22290	20.75395	-568.96014	673.41772	25.94139	-484.42938	-812.35480	-21.93952	649.24921	758.31659	-14.79366	653.10742	-31.97774	664.15741	-949.33667	
3529	35.280	-741.97705	21.19611	-568.87427	673.04248	26.07170	-484.24228	-812.80933	-22.00640	649.32220	757.57159	-14.80310	653.06055	-32.80468	664.62878	-948.84125	
3530	35.290	-742.46387	21.43606	-568.82251	672.55200	26.32156	-484.06485	-813.56720	-22.34149	649.37054	756.96411	-15.05719	653.00574	-33.24977	665.12195	-948.41968	
3531	35.300	-743.06000	21.79884	-568.66718	671.91754	26.46888	-483.95834	-813.85815	-22.52743	649.58307	756.50061	-15.34024	652.95197	-33.66919	665.53528	-948.04932	
3532	35.310	-743.50073	21.85758	-568.58270	671.52148	26.61247	-483.93622	-814.45123	-22.78203	649.57117	756.08643	-15.66506	653.14740	-34.03401	665.77441	-947.59174	
3533	35.320	-743.73615	21.94831	-568.51245	670.99915	26.96336	-484.02185	-814.98578	-22.98995	649.62201	755.91187	-16.16897	653.23242	-34.57960	666.00696	-947.16699	
3534	35.330	-744.21350	22.07626	-568.50739	670.63885	27.08533	-484.05545	-815.37122	-23.19056	649.65186	755.05127	-16.28424	653.20172	-35.06527	666.38312	-946.97192	
3535	35.340	-744.72650	22.21471	-568.47968	670.24139	27.31839	-483.94330	-815.77301	-23.31513	649.60626	754.71765	-16.38006	653.18750	-35.36454	666.76495	-946.86340	
3536	35.350	-745.26294	22.76073	-568.51428	670.04907	27.33402	-483.78616	-816.07495	-23.40816	649.64844	754.37067	-16.49669	653.34735	-35.71804	667.02692	-946.72443	
